Oxanium-Bold.ufo
<glyph name="numbersign" format="2">
  <advance width="678"/>
  <unicode hex="0023"/>
  <outline>
    <contour>
      <point x="50" y="166" type="line"/>
      <point x="50" y="284" type="line"/>
      <point x="163" y="284" type="line"/>
      <point x="163" y="406" type="line"/>
      <point x="50" y="406" type="line"/>
      <point x="50" y="524" type="line"/>
      <point x="163" y="524" type="line"/>
      <point x="163" y="690" type="line"/>
      <point x="287" y="690" type="line"/>
      <point x="287" y="524" type="line"/>
      <point x="391" y="524" type="line"/>
      <point x="391" y="690" type="line"/>
      <point x="515" y="690" type="line"/>
      <point x="515" y="524" type="line"/>
      <point x="628" y="524" type="line"/>
      <point x="628" y="406" type="line"/>
      <point x="515" y="406" type="line"/>
      <point x="515" y="284" type="line"/>
      <point x="628" y="284" type="line"/>
      <point x="628" y="166" type="line"/>
      <point x="515" y="166" type="line"/>
      <point x="515" y="0" type="line"/>
      <point x="391" y="0" type="line"/>
      <point x="391" y="166" type="line"/>
      <point x="287" y="166" type="line"/>
      <point x="287" y="0" type="line"/>
      <point x="163" y="0" type="line"/>
      <point x="163" y="166" type="line"/>
    </contour>
    <contour>
      <point x="287" y="284" type="line"/>
      <point x="391" y="284" type="line"/>
      <point x="391" y="406" type="line"/>
      <point x="287" y="406" type="line"/>
    </contour>
  </outline>
</glyph>
<glyph name="parenleft" format="2">
  <advance width="348"/>
  <unicode hex="0028"/>
  <outline>
    <contour>
      <point x="64" y="562"/>
      <point x="225" y="780" type="qcurve"/>
      <point x="330" y="701" type="line"/>
      <point x="203" y="520"/>
      <point x="203" y="60"/>
      <point x="330" y="-121" type="qcurve"/>
      <point x="225" y="-200" type="line"/>
      <point x="64" y="18"/>
    </contour>
  </outline>
</glyph>
<glyph name="parenright" format="2">
  <advance width="348"/>
  <unicode hex="0029"/>
  <outline>
    <contour>
      <point x="18" y="-121" type="line"/>
      <point x="145" y="60"/>
      <point x="145" y="520"/>
      <point x="18" y="701" type="qcurve"/>
      <point x="123" y="780" type="line"/>
      <point x="284" y="562"/>
      <point x="284" y="18"/>
      <point x="123" y="-200" type="qcurve"/>
    </contour>
  </outline>
</glyph>
<glyph name="plus" format="2">
  <advance width="578"/>
  <unicode hex="002B"/>
  <outline>
    <contour>
      <point x="60" y="276" type="line"/>
      <point x="60" y="394" type="line"/>
      <point x="227" y="394" type="line"/>
      <point x="227" y="570" type="line"/>
      <point x="351" y="570" type="line"/>
      <point x="351" y="394" type="line"/>
      <point x="518" y="394" type="line"/>
      <point x="518" y="276" type="line"/>
      <point x="351" y="276" type="line"/>
      <point x="351" y="100" type="line"/>
      <point x="227" y="100" type="line"/>
      <point x="227" y="276" type="line"/>
    </contour>
  </outline>
</glyph>
<glyph name="comma" format="2">
  <advance width="278"/>
  <unicode hex="002C"/>
  <outline>
    <contour>
      <point x="22" y="-124" type="line"/>
      <point x="80" y="144" type="line"/>
      <point x="214" y="144" type="line"/>
      <point x="228" y="123" type="line"/>
      <point x="124" y="-150" type="line"/>
    </contour>
  </outline>
</glyph>
<glyph name="period" format="2">
  <advance width="278"/>
  <unicode hex="002E"/>
  <outline>
    <contour>
      <point x="64" y="0" type="line"/>
      <point x="64" y="144" type="line"/>
      <point x="214" y="144" type="line"/>
      <point x="214" y="0" type="line"/>
    </contour>
  </outline>
</glyph>
<glyph name="zero" format="2">
  <advance width="578"/>
  <unicode hex="0030"/>
  <outline>
    <contour>
      <point x="52" y="168" type="qcurve" smooth="yes"/>
      <point x="52" y="522" type="line" smooth="yes"/>
      <point x="52" y="690"/>
      <point x="220" y="690" type="qcurve" smooth="yes"/>
      <point x="358" y="690" type="line" smooth="yes"/>
      <point x="526" y="690"/>
      <point x="526" y="522" type="qcurve" smooth="yes"/>
      <point x="526" y="168" type="line" smooth="yes"/>
      <point x="526" y="0"/>
      <point x="358" y="0" type="qcurve" smooth="yes"/>
      <point x="220" y="0" type="line" smooth="yes"/>
      <point x="52" y="0"/>
    </contour>
    <contour>
      <point x="196" y="160" type="line" smooth="yes"/>
      <point x="196" y="130"/>
      <point x="226" y="130" type="qcurve" smooth="yes"/>
      <point x="352" y="130" type="line" smooth="yes"/>
      <point x="382" y="130"/>
      <point x="382" y="160" type="qcurve" smooth="yes"/>
      <point x="382" y="530" type="line" smooth="yes"/>
      <point x="382" y="560"/>
      <point x="352" y="560" type="qcurve" smooth="yes"/>
      <point x="226" y="560" type="line" smooth="yes"/>
      <point x="196" y="560"/>
      <point x="196" y="530" type="qcurve" smooth="yes"/>
    </contour>
  </outline>
</glyph>
<glyph name="one" format="2">
  <advance width="578"/>
  <unicode hex="0031"/>
  <outline>
    <contour>
      <point x="80" y="0" type="line"/>
      <point x="80" y="130" type="line"/>
      <point x="233" y="130" type="line"/>
      <point x="233" y="560" type="line"/>
      <point x="105" y="560" type="line"/>
      <point x="105" y="638" type="line"/>
      <point x="172" y="690" type="line"/>
      <point x="377" y="690" type="line"/>
      <point x="377" y="130" type="line"/>
      <point x="514" y="130" type="line"/>
      <point x="514" y="0" type="line"/>
    </contour>
  </outline>
</glyph>
<glyph name="two" format="2">
  <advance width="578"/>
  <unicode hex="0032"/>
  <outline>
    <contour>
      <point x="52" y="0" type="line"/>
      <point x="52" y="225" type="line" smooth="yes"/>
      <point x="52" y="362"/>
      <point x="172" y="386" type="qcurve" smooth="yes"/>
      <point x="357" y="423" type="line" smooth="yes"/>
      <point x="382" y="428"/>
      <point x="382" y="456" type="qcurve" smooth="yes"/>
      <point x="382" y="530" type="line" smooth="yes"/>
      <point x="382" y="560"/>
      <point x="352" y="560" type="qcurve" smooth="yes"/>
      <point x="72" y="560" type="line"/>
      <point x="72" y="638" type="line"/>
      <point x="139" y="690" type="line"/>
      <point x="358" y="690" type="line" smooth="yes"/>
      <point x="526" y="690"/>
      <point x="526" y="522" type="qcurve" smooth="yes"/>
      <point x="526" y="457" type="line" smooth="yes"/>
      <point x="526" y="320"/>
      <point x="406" y="296" type="qcurve" smooth="yes"/>
      <point x="221" y="259" type="line" smooth="yes"/>
      <point x="196" y="254"/>
      <point x="196" y="226" type="qcurve" smooth="yes"/>
      <point x="196" y="130" type="line"/>
      <point x="526" y="130" type="line"/>
      <point x="526" y="0" type="line"/>
    </contour>
  </outline>
</glyph>
<glyph name="five" format="2">
  <advance width="578"/>
  <unicode hex="0035"/>
  <outline>
    <contour>
      <point x="42" y="52" type="line"/>
      <point x="42" y="130" type="line"/>
      <point x="352" y="130" type="line" smooth="yes"/>
      <point x="382" y="130"/>
      <point x="382" y="160" type="qcurve" smooth="yes"/>
      <point x="382" y="270" type="line" smooth="yes"/>
      <point x="382" y="300"/>
      <point x="352" y="300" type="qcurve" smooth="yes"/>
      <point x="52" y="300" type="line"/>
      <point x="52" y="690" type="line"/>
      <point x="496" y="690" type="line"/>
      <point x="496" y="560" type="line"/>
      <point x="196" y="560" type="line"/>
      <point x="196" y="430" type="line"/>
      <point x="358" y="430" type="line" smooth="yes"/>
      <point x="526" y="430"/>
      <point x="526" y="262" type="qcurve" smooth="yes"/>
      <point x="526" y="168" type="line" smooth="yes"/>
      <point x="526" y="0"/>
      <point x="358" y="0" type="qcurve" smooth="yes"/>
      <point x="109" y="0" type="line"/>
    </contour>
  </outline>
</glyph>
<glyph name="six" format="2">
  <advance width="578"/>
  <unicode hex="0036"/>
  <outline>
    <contour>
      <point x="52" y="168" type="qcurve" smooth="yes"/>
      <point x="52" y="488" type="line" smooth="yes"/>
      <point x="52" y="690"/>
      <point x="254" y="690" type="qcurve" smooth="yes"/>
      <point x="419" y="690" type="line"/>
      <point x="486" y="638" type="line"/>
      <point x="486" y="560" type="line"/>
      <point x="250" y="560" type="line" smooth="yes"/>
      <point x="196" y="560"/>
      <point x="196" y="506" type="qcurve" smooth="yes"/>
      <point x="196" y="430" type="line"/>
      <point x="358" y="430" type="line" smooth="yes"/>
      <point x="526" y="430"/>
      <point x="526" y="262" type="qcurve" smooth="yes"/>
      <point x="526" y="168" type="line" smooth="yes"/>
      <point x="526" y="0"/>
      <point x="358" y="0" type="qcurve" smooth="yes"/>
      <point x="220" y="0" type="line" smooth="yes"/>
      <point x="52" y="0"/>
    </contour>
    <contour>
      <point x="196" y="160" type="line" smooth="yes"/>
      <point x="196" y="130"/>
      <point x="226" y="130" type="qcurve" smooth="yes"/>
      <point x="352" y="130" type="line" smooth="yes"/>
      <point x="382" y="130"/>
      <point x="382" y="160" type="qcurve" smooth="yes"/>
      <point x="382" y="270" type="line" smooth="yes"/>
      <point x="382" y="300"/>
      <point x="352" y="300" type="qcurve" smooth="yes"/>
      <point x="196" y="300" type="line"/>
    </contour>
  </outline>
</glyph>
<glyph name="seven" format="2">
  <advance width="578"/>
  <unicode hex="0037"/>
  <outline>
    <contour>
      <point x="52" y="560" type="line"/>
      <point x="52" y="690" type="line"/>
      <point x="526" y="690" type="line"/>
      <point x="526" y="475" type="line"/>
      <point x="277" y="0" type="line"/>
      <point x="148" y="0" type="line"/>
      <point x="131" y="30" type="line"/>
      <point x="382" y="505" type="line"/>
      <point x="382" y="560" type="line"/>
    </contour>
  </outline>
</glyph>
<glyph name="eight" format="2">
  <advance width="578"/>
  <unicode hex="0038"/>
  <outline>
    <contour>
      <point x="52" y="168" type="qcurve" smooth="yes"/>
      <point x="52" y="257" type="line" smooth="yes"/>
      <point x="52" y="297"/>
      <point x="77" y="322" type="qcurve" smooth="yes"/>
      <point x="112" y="357" type="line"/>
      <point x="77" y="392" type="line" smooth="yes"/>
      <point x="52" y="417"/>
      <point x="52" y="457" type="qcurve" smooth="yes"/>
      <point x="52" y="522" type="line" smooth="yes"/>
      <point x="52" y="690"/>
      <point x="220" y="690" type="qcurve" smooth="yes"/>
      <point x="358" y="690" type="line" smooth="yes"/>
      <point x="526" y="690"/>
      <point x="526" y="522" type="qcurve" smooth="yes"/>
      <point x="526" y="457" type="line" smooth="yes"/>
      <point x="526" y="417"/>
      <point x="501" y="392" type="qcurve" smooth="yes"/>
      <point x="466" y="357" type="line"/>
      <point x="501" y="322" type="line" smooth="yes"/>
      <point x="526" y="297"/>
      <point x="526" y="257" type="qcurve" smooth="yes"/>
      <point x="526" y="168" type="line" smooth="yes"/>
      <point x="526" y="0"/>
      <point x="358" y="0" type="qcurve" smooth="yes"/>
      <point x="220" y="0" type="line" smooth="yes"/>
      <point x="52" y="0"/>
    </contour>
    <contour>
      <point x="196" y="160" type="line" smooth="yes"/>
      <point x="196" y="130"/>
      <point x="226" y="130" type="qcurve" smooth="yes"/>
      <point x="352" y="130" type="line" smooth="yes"/>
      <point x="382" y="130"/>
      <point x="382" y="160" type="qcurve" smooth="yes"/>
      <point x="382" y="260" type="line" smooth="yes"/>
      <point x="382" y="290"/>
      <point x="352" y="290" type="qcurve" smooth="yes"/>
      <point x="226" y="290" type="line" smooth="yes"/>
      <point x="196" y="290"/>
      <point x="196" y="260" type="qcurve" smooth="yes"/>
    </contour>
    <contour>
      <point x="196" y="450" type="line" smooth="yes"/>
      <point x="196" y="420"/>
      <point x="226" y="420" type="qcurve" smooth="yes"/>
      <point x="352" y="420" type="line" smooth="yes"/>
      <point x="382" y="420"/>
      <point x="382" y="450" type="qcurve" smooth="yes"/>
      <point x="382" y="530" type="line" smooth="yes"/>
      <point x="382" y="560"/>
      <point x="352" y="560" type="qcurve" smooth="yes"/>
      <point x="226" y="560" type="line" smooth="yes"/>
      <point x="196" y="560"/>
      <point x="196" y="530" type="qcurve" smooth="yes"/>
    </contour>
  </outline>
</glyph>
<glyph name="nine" format="2">
  <advance width="578"/>
  <unicode hex="0039"/>
  <outline>
    <contour>
      <point x="52" y="428" type="qcurve" smooth="yes"/>
      <point x="52" y="522" type="line" smooth="yes"/>
      <point x="52" y="690"/>
      <point x="220" y="690" type="qcurve" smooth="yes"/>
      <point x="358" y="690" type="line" smooth="yes"/>
      <point x="526" y="690"/>
      <point x="526" y="522" type="qcurve" smooth="yes"/>
      <point x="526" y="202" type="line" smooth="yes"/>
      <point x="526" y="0"/>
      <point x="324" y="0" type="qcurve" smooth="yes"/>
      <point x="149" y="0" type="line"/>
      <point x="82" y="52" type="line"/>
      <point x="82" y="130" type="line"/>
      <point x="328" y="130" type="line" smooth="yes"/>
      <point x="382" y="130"/>
      <point x="382" y="184" type="qcurve" smooth="yes"/>
      <point x="382" y="260" type="line"/>
      <point x="220" y="260" type="line" smooth="yes"/>
      <point x="52" y="260"/>
    </contour>
    <contour>
      <point x="196" y="420" type="line" smooth="yes"/>
      <point x="196" y="390"/>
      <point x="226" y="390" type="qcurve" smooth="yes"/>
      <point x="382" y="390" type="line"/>
      <point x="382" y="530" type="line" smooth="yes"/>
      <point x="382" y="560"/>
      <point x="352" y="560" type="qcurve" smooth="yes"/>
      <point x="226" y="560" type="line" smooth="yes"/>
      <point x="196" y="560"/>
      <point x="196" y="530" type="qcurve" smooth="yes"/>
    </contour>
  </outline>
</glyph>
<glyph name="less" format="2">
  <advance width="578"/>
  <unicode hex="003C"/>
  <outline>
    <contour>
      <point x="64" y="270" type="line"/>
      <point x="64" y="400" type="line"/>
      <point x="474" y="596" type="line"/>
      <point x="524" y="491" type="line"/>
      <point x="191" y="335" type="line"/>
      <point x="524" y="179" type="line"/>
      <point x="474" y="74" type="line"/>
    </contour>
  </outline>
</glyph>
<glyph name="equal" format="2">
  <advance width="578"/>
  <unicode hex="003D"/>
  <outline>
    <contour>
      <point x="60" y="166" type="line"/>
      <point x="60" y="284" type="line"/>
      <point x="518" y="284" type="line"/>
      <point x="518" y="166" type="line"/>
    </contour>
    <contour>
      <point x="60" y="386" type="line"/>
      <point x="60" y="504" type="line"/>
      <point x="518" y="504" type="line"/>
      <point x="518" y="386" type="line"/>
    </contour>
  </outline>
</glyph>
<glyph name="question" format="2">
  <advance width="524"/>
  <unicode hex="003F"/>
  <outline>
    <contour>
      <point x="40" y="560" type="line"/>
      <point x="40" y="638" type="line"/>
      <point x="107" y="690" type="line"/>
      <point x="306" y="690" type="line" smooth="yes"/>
      <point x="474" y="690"/>
      <point x="474" y="522" type="qcurve" smooth="yes"/>
      <point x="474" y="438" type="line" smooth="yes"/>
      <point x="474" y="270"/>
      <point x="306" y="270" type="qcurve" smooth="yes"/>
      <point x="296" y="270" type="line"/>
      <point x="296" y="222" type="line"/>
      <point x="152" y="222" type="line"/>
      <point x="152" y="400" type="line"/>
      <point x="300" y="400" type="line" smooth="yes"/>
      <point x="330" y="400"/>
      <point x="330" y="430" type="qcurve" smooth="yes"/>
      <point x="330" y="530" type="line" smooth="yes"/>
      <point x="330" y="560"/>
      <point x="300" y="560" type="qcurve" smooth="yes"/>
    </contour>
    <contour>
      <point x="149" y="0" type="line"/>
      <point x="149" y="144" type="line"/>
      <point x="299" y="144" type="line"/>
      <point x="299" y="0" type="line"/>
    </contour>
  </outline>
</glyph>
<glyph name="at" format="2">
  <advance width="808"/>
  <unicode hex="0040"/>
  <outline>
    <contour>
      <point x="82" y="16" type="qcurve" smooth="yes"/>
      <point x="82" y="534" type="line" smooth="yes"/>
      <point x="82" y="690"/>
      <point x="238" y="690" type="qcurve" smooth="yes"/>
      <point x="726" y="690" type="line"/>
      <point x="726" y="60" type="line"/>
      <point x="464" y="60" type="line" smooth="yes"/>
      <point x="302" y="60"/>
      <point x="302" y="222" type="qcurve" smooth="yes"/>
      <point x="302" y="328" type="line" smooth="yes"/>
      <point x="302" y="490"/>
      <point x="464" y="490" type="qcurve" smooth="yes"/>
      <point x="602" y="490" type="line"/>
      <point x="602" y="582" type="line"/>
      <point x="242" y="582" type="line" smooth="yes"/>
      <point x="206" y="582"/>
      <point x="206" y="546" type="qcurve" smooth="yes"/>
      <point x="206" y="4" type="line" smooth="yes"/>
      <point x="206" y="-32"/>
      <point x="242" y="-32" type="qcurve" smooth="yes"/>
      <point x="706" y="-32" type="line"/>
      <point x="706" y="-95" type="line"/>
      <point x="646" y="-140" type="line"/>
      <point x="238" y="-140" type="line" smooth="yes"/>
      <point x="82" y="-140"/>
    </contour>
    <contour>
      <point x="440" y="212" type="line" smooth="yes"/>
      <point x="440" y="180"/>
      <point x="472" y="180" type="qcurve" smooth="yes"/>
      <point x="588" y="180" type="line"/>
      <point x="588" y="370" type="line"/>
      <point x="472" y="370" type="line" smooth="yes"/>
      <point x="440" y="370"/>
      <point x="440" y="338" type="qcurve" smooth="yes"/>
    </contour>
  </outline>
</glyph>
<glyph name="B" format="2">
  <advance width="652"/>
  <unicode hex="0042"/>
  <outline>
    <contour>
      <point x="82" y="0" type="line"/>
      <point x="82" y="690" type="line"/>
      <point x="408" y="690" type="line" smooth="yes"/>
      <point x="576" y="690"/>
      <point x="576" y="522" type="qcurve" smooth="yes"/>
      <point x="576" y="462" type="line" smooth="yes"/>
      <point x="576" y="428"/>
      <point x="556" y="404" type="qcurve" smooth="yes"/>
      <point x="521" y="362" type="line"/>
      <point x="563" y="327" type="line" smooth="yes"/>
      <point x="596" y="300"/>
      <point x="596" y="247" type="qcurve" smooth="yes"/>
      <point x="596" y="168" type="line" smooth="yes"/>
      <point x="596" y="0"/>
      <point x="428" y="0" type="qcurve" smooth="yes"/>
    </contour>
    <contour>
      <point x="226" y="130" type="line"/>
      <point x="422" y="130" type="line" smooth="yes"/>
      <point x="452" y="130"/>
      <point x="452" y="160" type="qcurve" smooth="yes"/>
      <point x="452" y="260" type="line" smooth="yes"/>
      <point x="452" y="290"/>
      <point x="422" y="290" type="qcurve" smooth="yes"/>
      <point x="226" y="290" type="line"/>
    </contour>
    <contour>
      <point x="226" y="420" type="line"/>
      <point x="402" y="420" type="line" smooth="yes"/>
      <point x="432" y="420"/>
      <point x="432" y="450" type="qcurve" smooth="yes"/>
      <point x="432" y="530" type="line" smooth="yes"/>
      <point x="432" y="560"/>
      <point x="402" y="560" type="qcurve" smooth="yes"/>
      <point x="226" y="560" type="line"/>
    </contour>
  </outline>
</glyph>
<glyph name="C" format="2">
  <advance width="624"/>
  <unicode hex="0043"/>
  <outline>
    <contour>
      <point x="72" y="168" type="qcurve" smooth="yes"/>
      <point x="72" y="522" type="line" smooth="yes"/>
      <point x="72" y="690"/>
      <point x="240" y="690" type="qcurve" smooth="yes"/>
      <point x="507" y="690" type="line"/>
      <point x="574" y="638" type="line"/>
      <point x="574" y="560" type="line"/>
      <point x="246" y="560" type="line" smooth="yes"/>
      <point x="216" y="560"/>
      <point x="216" y="530" type="qcurve" smooth="yes"/>
      <point x="216" y="160" type="line" smooth="yes"/>
      <point x="216" y="130"/>
      <point x="246" y="130" type="qcurve" smooth="yes"/>
      <point x="574" y="130" type="line"/>
      <point x="574" y="52" type="line"/>
      <point x="507" y="0" type="line"/>
      <point x="240" y="0" type="line" smooth="yes"/>
      <point x="72" y="0"/>
    </contour>
  </outline>
</glyph>
<glyph name="G" format="2">
  <advance width="678"/>
  <unicode hex="0047"/>
  <outline>
    <contour>
      <point x="72" y="168" type="qcurve" smooth="yes"/>
      <point x="72" y="522" type="line" smooth="yes"/>
      <point x="72" y="690"/>
      <point x="240" y="690" type="qcurve" smooth="yes"/>
      <point x="529" y="690" type="line"/>
      <point x="596" y="638" type="line"/>
      <point x="596" y="560" type="line"/>
      <point x="246" y="560" type="line" smooth="yes"/>
      <point x="216" y="560"/>
      <point x="216" y="530" type="qcurve" smooth="yes"/>
      <point x="216" y="160" type="line" smooth="yes"/>
      <point x="216" y="130"/>
      <point x="246" y="130" type="qcurve" smooth="yes"/>
      <point x="472" y="130" type="line"/>
      <point x="472" y="290" type="line"/>
      <point x="340" y="290" type="line"/>
      <point x="340" y="420" type="line"/>
      <point x="616" y="420" type="line"/>
      <point x="616" y="0" type="line"/>
      <point x="240" y="0" type="line" smooth="yes"/>
      <point x="72" y="0"/>
    </contour>
  </outline>
</glyph>
<glyph name="I" format="2">
  <advance width="308"/>
  <unicode hex="0049"/>
  <outline>
    <contour>
      <point x="82" y="0" type="line"/>
      <point x="82" y="690" type="line"/>
      <point x="226" y="690" type="line"/>
      <point x="226" y="0" type="line"/>
    </contour>
  </outline>
</glyph>
<glyph name="J" format="2">
  <advance width="612"/>
  <unicode hex="004A"/>
  <outline>
    <contour>
      <point x="52" y="168" type="qcurve" smooth="yes"/>
      <point x="52" y="300" type="line"/>
      <point x="196" y="300" type="line"/>
      <point x="196" y="160" type="line" smooth="yes"/>
      <point x="196" y="130"/>
      <point x="226" y="130" type="qcurve" smooth="yes"/>
      <point x="362" y="130" type="line" smooth="yes"/>
      <point x="392" y="130"/>
      <point x="392" y="160" type="qcurve" smooth="yes"/>
      <point x="392" y="560" type="line"/>
      <point x="204" y="560" type="line"/>
      <point x="204" y="690" type="line"/>
      <point x="536" y="690" type="line"/>
      <point x="536" y="168" type="line" smooth="yes"/>
      <point x="536" y="0"/>
      <point x="368" y="0" type="qcurve" smooth="yes"/>
      <point x="220" y="0" type="line" smooth="yes"/>
      <point x="52" y="0"/>
    </contour>
  </outline>
</glyph>
<glyph name="L" format="2">
  <advance width="548"/>
  <unicode hex="004C"/>
  <outline>
    <contour>
      <point x="82" y="0" type="line"/>
      <point x="82" y="690" type="line"/>
      <point x="226" y="690" type="line"/>
      <point x="226" y="130" type="line"/>
      <point x="524" y="130" type="line"/>
      <point x="524" y="0" type="line"/>
    </contour>
  </outline>
</glyph>
<glyph name="M" format="2">
  <advance width="898"/>
  <unicode hex="004D"/>
  <outline>
    <contour>
      <point x="82" y="0" type="line"/>
      <point x="82" y="690" type="line"/>
      <point x="254" y="690" type="line"/>
      <point x="449" y="273" type="line"/>
      <point x="644" y="690" type="line"/>
      <point x="816" y="690" type="line"/>
      <point x="816" y="0" type="line"/>
      <point x="672" y="0" type="line"/>
      <point x="672" y="436" type="line"/>
      <point x="510" y="90" type="line"/>
      <point x="388" y="90" type="line"/>
      <point x="226" y="436" type="line"/>
      <point x="226" y="0" type="line"/>
    </contour>
  </outline>
</glyph>
<glyph name="R" format="2">
  <advance width="648"/>
  <unicode hex="0052"/>
  <outline>
    <contour>
      <point x="82" y="0" type="line"/>
      <point x="82" y="690" type="line"/>
      <point x="418" y="690" type="line" smooth="yes"/>
      <point x="586" y="690"/>
      <point x="586" y="522" type="qcurve" smooth="yes"/>
      <point x="586" y="408" type="line" smooth="yes"/>
      <point x="586" y="283"/>
      <point x="493" y="251" type="qcurve"/>
      <point x="606" y="30" type="line"/>
      <point x="589" y="0" type="line"/>
      <point x="465" y="0" type="line"/>
      <point x="343" y="240" type="line"/>
      <point x="226" y="240" type="line"/>
      <point x="226" y="0" type="line"/>
    </contour>
    <contour>
      <point x="226" y="370" type="line"/>
      <point x="412" y="370" type="line" smooth="yes"/>
      <point x="442" y="370"/>
      <point x="442" y="400" type="qcurve" smooth="yes"/>
      <point x="442" y="530" type="line" smooth="yes"/>
      <point x="442" y="560"/>
      <point x="412" y="560" type="qcurve" smooth="yes"/>
      <point x="226" y="560" type="line"/>
    </contour>
  </outline>
</glyph>
<glyph name="T" format="2">
  <advance width="612"/>
  <unicode hex="0054"/>
  <outline>
    <contour>
      <point x="24" y="560" type="line"/>
      <point x="24" y="690" type="line"/>
      <point x="588" y="690" type="line"/>
      <point x="588" y="560" type="line"/>
      <point x="378" y="560" type="line"/>
      <point x="378" y="0" type="line"/>
      <point x="234" y="0" type="line"/>
      <point x="234" y="560" type="line"/>
    </contour>
  </outline>
</glyph>
<glyph name="U" format="2">
  <advance width="696"/>
  <unicode hex="0055"/>
  <outline>
    <contour>
      <point x="76" y="168" type="qcurve" smooth="yes"/>
      <point x="76" y="690" type="line"/>
      <point x="220" y="690" type="line"/>
      <point x="220" y="160" type="line" smooth="yes"/>
      <point x="220" y="130"/>
      <point x="250" y="130" type="qcurve" smooth="yes"/>
      <point x="446" y="130" type="line" smooth="yes"/>
      <point x="476" y="130"/>
      <point x="476" y="160" type="qcurve" smooth="yes"/>
      <point x="476" y="690" type="line"/>
      <point x="620" y="690" type="line"/>
      <point x="620" y="168" type="line" smooth="yes"/>
      <point x="620" y="0"/>
      <point x="452" y="0" type="qcurve" smooth="yes"/>
      <point x="244" y="0" type="line" smooth="yes"/>
      <point x="76" y="0"/>
    </contour>
  </outline>
</glyph>
<glyph name="Y" format="2">
  <advance width="616"/>
  <unicode hex="0059"/>
  <outline>
    <contour>
      <point x="18" y="663" type="line"/>
      <point x="35" y="690" type="line"/>
      <point x="158" y="690" type="line"/>
      <point x="308" y="397" type="line"/>
      <point x="458" y="690" type="line"/>
      <point x="581" y="690" type="line"/>
      <point x="598" y="663" type="line"/>
      <point x="380" y="244" type="line"/>
      <point x="380" y="0" type="line"/>
      <point x="236" y="0" type="line"/>
      <point x="236" y="244" type="line"/>
    </contour>
  </outline>
</glyph>
<glyph name="bracketright" format="2">
  <advance width="382"/>
  <unicode hex="005D"/>
  <outline>
    <contour>
      <point x="30" y="-60" type="line"/>
      <point x="162" y="-60" type="line"/>
      <point x="162" y="640" type="line"/>
      <point x="30" y="640" type="line"/>
      <point x="30" y="760" type="line"/>
      <point x="300" y="760" type="line"/>
      <point x="300" y="-180" type="line"/>
      <point x="30" y="-180" type="line"/>
    </contour>
  </outline>
</glyph>
<glyph name="c" format="2">
  <advance width="518"/>
  <unicode hex="0063"/>
  <outline>
    <contour>
      <point x="64" y="162" type="qcurve" smooth="yes"/>
      <point x="64" y="366" type="line" smooth="yes"/>
      <point x="64" y="528"/>
      <point x="226" y="528" type="qcurve" smooth="yes"/>
      <point x="412" y="528" type="line"/>
      <point x="472" y="483" type="line"/>
      <point x="472" y="408" type="line"/>
      <point x="234" y="408" type="line" smooth="yes"/>
      <point x="202" y="408"/>
      <point x="202" y="376" type="qcurve" smooth="yes"/>
      <point x="202" y="152" type="line" smooth="yes"/>
      <point x="202" y="120"/>
      <point x="234" y="120" type="qcurve" smooth="yes"/>
      <point x="472" y="120" type="line"/>
      <point x="472" y="45" type="line"/>
      <point x="412" y="0" type="line"/>
      <point x="226" y="0" type="line" smooth="yes"/>
      <point x="64" y="0"/>
    </contour>
  </outline>
</glyph>
<glyph name="e" format="2">
  <advance width="582"/>
  <unicode hex="0065"/>
  <outline>
    <contour>
      <point x="64" y="162" type="qcurve" smooth="yes"/>
      <point x="64" y="366" type="line" smooth="yes"/>
      <point x="64" y="528"/>
      <point x="226" y="528" type="qcurve" smooth="yes"/>
      <point x="356" y="528" type="line" smooth="yes"/>
      <point x="518" y="528"/>
      <point x="518" y="366" type="qcurve" smooth="yes"/>
      <point x="518" y="212" type="line"/>
      <point x="202" y="212" type="line"/>
      <point x="202" y="152" type="line" smooth="yes"/>
      <point x="202" y="120"/>
      <point x="234" y="120" type="qcurve" smooth="yes"/>
      <point x="498" y="120" type="line"/>
      <point x="498" y="45" type="line"/>
      <point x="438" y="0" type="line"/>
      <point x="226" y="0" type="line" smooth="yes"/>
      <point x="64" y="0"/>
    </contour>
    <contour>
      <point x="202" y="320" type="line"/>
      <point x="380" y="320" type="line"/>
      <point x="380" y="376" type="line" smooth="yes"/>
      <point x="380" y="408"/>
      <point x="348" y="408" type="qcurve" smooth="yes"/>
      <point x="234" y="408" type="line" smooth="yes"/>
      <point x="202" y="408"/>
      <point x="202" y="376" type="qcurve" smooth="yes"/>
    </contour>
  </outline>
</glyph>
<glyph name="f" format="2">
  <advance width="412"/>
  <unicode hex="0066"/>
  <outline>
    <contour>
      <point x="72" y="0" type="line"/>
      <point x="72" y="578" type="line" smooth="yes"/>
      <point x="72" y="740"/>
      <point x="234" y="740" type="qcurve" smooth="yes"/>
      <point x="332" y="740" type="line"/>
      <point x="392" y="695" type="line"/>
      <point x="392" y="620" type="line"/>
      <point x="242" y="620" type="line" smooth="yes"/>
      <point x="210" y="620"/>
      <point x="210" y="588" type="qcurve" smooth="yes"/>
      <point x="210" y="528" type="line"/>
      <point x="382" y="528" type="line"/>
      <point x="382" y="408" type="line"/>
      <point x="210" y="408" type="line"/>
      <point x="210" y="0" type="line"/>
    </contour>
  </outline>
</glyph>
<glyph name="g" format="2">
  <advance width="582"/>
  <unicode hex="0067"/>
  <outline>
    <contour>
      <point x="60" y="162" type="qcurve" smooth="yes"/>
      <point x="60" y="366" type="line" smooth="yes"/>
      <point x="60" y="528"/>
      <point x="222" y="528" type="qcurve" smooth="yes"/>
      <point x="514" y="528" type="line"/>
      <point x="514" y="-38" type="line" smooth="yes"/>
      <point x="514" y="-200"/>
      <point x="352" y="-200" type="qcurve" smooth="yes"/>
      <point x="165" y="-200" type="line"/>
      <point x="105" y="-155" type="line"/>
      <point x="105" y="-80" type="line"/>
      <point x="344" y="-80" type="line" smooth="yes"/>
      <point x="376" y="-80"/>
      <point x="376" y="-48" type="qcurve" smooth="yes"/>
      <point x="376" y="0" type="line"/>
      <point x="222" y="0" type="line" smooth="yes"/>
      <point x="60" y="0"/>
    </contour>
    <contour>
      <point x="198" y="152" type="line" smooth="yes"/>
      <point x="198" y="120"/>
      <point x="230" y="120" type="qcurve" smooth="yes"/>
      <point x="376" y="120" type="line"/>
      <point x="376" y="408" type="line"/>
      <point x="230" y="408" type="line" smooth="yes"/>
      <point x="198" y="408"/>
      <point x="198" y="376" type="qcurve" smooth="yes"/>
    </contour>
  </outline>
</glyph>
<glyph name="h" format="2">
  <advance width="594"/>
  <unicode hex="0068"/>
  <outline>
    <contour>
      <point x="72" y="0" type="line"/>
      <point x="72" y="740" type="line"/>
      <point x="210" y="740" type="line"/>
      <point x="210" y="528" type="line"/>
      <point x="364" y="528" type="line" smooth="yes"/>
      <point x="526" y="528"/>
      <point x="526" y="366" type="qcurve" smooth="yes"/>
      <point x="526" y="0" type="line"/>
      <point x="388" y="0" type="line"/>
      <point x="388" y="376" type="line" smooth="yes"/>
      <point x="388" y="408"/>
      <point x="356" y="408" type="qcurve" smooth="yes"/>
      <point x="210" y="408" type="line"/>
      <point x="210" y="0" type="line"/>
    </contour>
  </outline>
</glyph>
<glyph name="j" format="2">
  <advance width="282"/>
  <unicode hex="006A"/>
  <outline>
    <contour>
      <point x="-10" y="-93" type="line"/>
      <point x="72" y="-87"/>
      <point x="72" y="-7" type="qcurve" smooth="yes"/>
      <point x="72" y="528" type="line"/>
      <point x="210" y="528" type="line"/>
      <point x="210" y="10" type="line" smooth="yes"/>
      <point x="210" y="-210"/>
      <point x="-10" y="-210" type="qcurve"/>
    </contour>
    <contour>
      <point x="70" y="614" type="line"/>
      <point x="70" y="748" type="line"/>
      <point x="212" y="748" type="line"/>
      <point x="212" y="614" type="line"/>
    </contour>
  </outline>
</glyph>
<glyph name="k" format="2">
  <advance width="580"/>
  <unicode hex="006B"/>
  <outline>
    <contour>
      <point x="72" y="0" type="line"/>
      <point x="72" y="740" type="line"/>
      <point x="210" y="740" type="line"/>
      <point x="210" y="329" type="line"/>
      <point x="393" y="528" type="line"/>
      <point x="529" y="528" type="line"/>
      <point x="540" y="505" type="line"/>
      <point x="357" y="308" type="line"/>
      <point x="554" y="23" type="line"/>
      <point x="543" y="0" type="line"/>
      <point x="408" y="0" type="line"/>
      <point x="266" y="209" type="line"/>
      <point x="210" y="148" type="line"/>
      <point x="210" y="0" type="line"/>
    </contour>
  </outline>
</glyph>
<glyph name="l" format="2">
  <advance width="310"/>
  <unicode hex="006C"/>
  <outline>
    <contour>
      <point x="68" y="192" type="qcurve" smooth="yes"/>
      <point x="68" y="740" type="line"/>
      <point x="206" y="740" type="line"/>
      <point x="206" y="178" type="line" smooth="yes"/>
      <point x="206" y="116"/>
      <point x="270" y="110" type="qcurve"/>
      <point x="270" y="-10" type="line"/>
      <point x="68" y="-10"/>
    </contour>
  </outline>
</glyph>
<glyph name="m" format="2">
  <advance width="904"/>
  <unicode hex="006D"/>
  <outline>
    <contour>
      <point x="72" y="0" type="line"/>
      <point x="72" y="528" type="line"/>
      <point x="674" y="528" type="line" smooth="yes"/>
      <point x="836" y="528"/>
      <point x="836" y="366" type="qcurve" smooth="yes"/>
      <point x="836" y="0" type="line"/>
      <point x="698" y="0" type="line"/>
      <point x="698" y="376" type="line" smooth="yes"/>
      <point x="698" y="408"/>
      <point x="666" y="408" type="qcurve" smooth="yes"/>
      <point x="523" y="408" type="line"/>
      <point x="523" y="0" type="line"/>
      <point x="385" y="0" type="line"/>
      <point x="385" y="408" type="line"/>
      <point x="210" y="408" type="line"/>
      <point x="210" y="0" type="line"/>
    </contour>
  </outline>
</glyph>
<glyph name="o" format="2">
  <advance width="592"/>
  <unicode hex="006F"/>
  <outline>
    <contour>
      <point x="64" y="162" type="qcurve" smooth="yes"/>
      <point x="64" y="366" type="line" smooth="yes"/>
      <point x="64" y="528"/>
      <point x="226" y="528" type="qcurve" smooth="yes"/>
      <point x="366" y="528" type="line" smooth="yes"/>
      <point x="528" y="528"/>
      <point x="528" y="366" type="qcurve" smooth="yes"/>
      <point x="528" y="162" type="line" smooth="yes"/>
      <point x="528" y="0"/>
      <point x="366" y="0" type="qcurve" smooth="yes"/>
      <point x="226" y="0" type="line" smooth="yes"/>
      <point x="64" y="0"/>
    </contour>
    <contour>
      <point x="202" y="152" type="line" smooth="yes"/>
      <point x="202" y="120"/>
      <point x="234" y="120" type="qcurve" smooth="yes"/>
      <point x="358" y="120" type="line" smooth="yes"/>
      <point x="390" y="120"/>
      <point x="390" y="152" type="qcurve" smooth="yes"/>
      <point x="390" y="376" type="line" smooth="yes"/>
      <point x="390" y="408"/>
      <point x="358" y="408" type="qcurve" smooth="yes"/>
      <point x="234" y="408" type="line" smooth="yes"/>
      <point x="202" y="408"/>
      <point x="202" y="376" type="qcurve" smooth="yes"/>
    </contour>
  </outline>
</glyph>
<glyph name="s" format="2">
  <advance width="508"/>
  <unicode hex="0073"/>
  <outline>
    <contour>
      <point x="54" y="45" type="line"/>
      <point x="54" y="120" type="line"/>
      <point x="284" y="120" type="line" smooth="yes"/>
      <point x="318" y="120"/>
      <point x="318" y="158" type="qcurve" smooth="yes"/>
      <point x="318" y="197"/>
      <point x="288" y="202" type="qcurve" smooth="yes"/>
      <point x="180" y="220" type="line" smooth="yes"/>
      <point x="54" y="241"/>
      <point x="54" y="366" type="qcurve" smooth="yes"/>
      <point x="54" y="528"/>
      <point x="216" y="528" type="qcurve" smooth="yes"/>
      <point x="371" y="528" type="line"/>
      <point x="431" y="483" type="line"/>
      <point x="431" y="408" type="line"/>
      <point x="225" y="408" type="line" smooth="yes"/>
      <point x="191" y="408"/>
      <point x="191" y="370" type="qcurve" smooth="yes"/>
      <point x="191" y="331"/>
      <point x="221" y="326" type="qcurve" smooth="yes"/>
      <point x="329" y="308" type="line" smooth="yes"/>
      <point x="455" y="287"/>
      <point x="455" y="162" type="qcurve" smooth="yes"/>
      <point x="455" y="0"/>
      <point x="293" y="0" type="qcurve" smooth="yes"/>
      <point x="114" y="0" type="line"/>
    </contour>
  </outline>
</glyph>
<glyph name="v" format="2">
  <advance width="556"/>
  <unicode hex="0076"/>
  <outline>
    <contour>
      <point x="18" y="507" type="line"/>
      <point x="32" y="528" type="line"/>
      <point x="151" y="528" type="line"/>
      <point x="273" y="120" type="line"/>
      <point x="283" y="120" type="line"/>
      <point x="405" y="528" type="line"/>
      <point x="524" y="528" type="line"/>
      <point x="538" y="507" type="line"/>
      <point x="379" y="0" type="line"/>
      <point x="177" y="0" type="line"/>
    </contour>
  </outline>
</glyph>
<glyph name="w" format="2">
  <advance width="828"/>
  <unicode hex="0077"/>
  <outline>
    <contour>
      <point x="22" y="507" type="line"/>
      <point x="37" y="528" type="line"/>
      <point x="153" y="528" type="line"/>
      <point x="233" y="120" type="line"/>
      <point x="240" y="120" type="line"/>
      <point x="336" y="528" type="line"/>
      <point x="492" y="528" type="line"/>
      <point x="588" y="120" type="line"/>
      <point x="595" y="120" type="line"/>
      <point x="675" y="528" type="line"/>
      <point x="791" y="528" type="line"/>
      <point x="806" y="507" type="line"/>
      <point x="700" y="0" type="line"/>
      <point x="494" y="0" type="line"/>
      <point x="414" y="367" type="line"/>
      <point x="334" y="0" type="line"/>
      <point x="128" y="0" type="line"/>
    </contour>
  </outline>
</glyph>
<glyph name="x" format="2">
  <advance width="556"/>
  <unicode hex="0078"/>
  <outline>
    <contour>
      <point x="28" y="23" type="line"/>
      <point x="201" y="267" type="line"/>
      <point x="33" y="505" type="line"/>
      <point x="44" y="528" type="line"/>
      <point x="171" y="528" type="line"/>
      <point x="278" y="370" type="line"/>
      <point x="385" y="528" type="line"/>
      <point x="512" y="528" type="line"/>
      <point x="523" y="505" type="line"/>
      <point x="355" y="267" type="line"/>
      <point x="528" y="23" type="line"/>
      <point x="517" y="0" type="line"/>
      <point x="390" y="0" type="line"/>
      <point x="278" y="163" type="line"/>
      <point x="166" y="0" type="line"/>
      <point x="39" y="0" type="line"/>
    </contour>
  </outline>
</glyph>
<glyph name="z" format="2">
  <advance width="518"/>
  <unicode hex="007A"/>
  <outline>
    <contour>
      <point x="42" y="0" type="line"/>
      <point x="42" y="104" type="line"/>
      <point x="289" y="408" type="line"/>
      <point x="52" y="408" type="line"/>
      <point x="52" y="528" type="line"/>
      <point x="466" y="528" type="line"/>
      <point x="466" y="424" type="line"/>
      <point x="220" y="120" type="line"/>
      <point x="476" y="120" type="line"/>
      <point x="476" y="0" type="line"/>
    </contour>
  </outline>
</glyph>
<glyph name="braceleft" format="2">
  <advance width="420"/>
  <unicode hex="007B"/>
  <outline>
    <contour>
      <point x="50" y="251" type="line"/>
      <point x="50" y="319" type="line"/>
      <point x="130" y="399" type="line"/>
      <point x="130" y="598" type="line" smooth="yes"/>
      <point x="130" y="760"/>
      <point x="292" y="760" type="qcurve" smooth="yes"/>
      <point x="390" y="760" type="line"/>
      <point x="390" y="640" type="line"/>
      <point x="300" y="640" type="line" smooth="yes"/>
      <point x="268" y="640"/>
      <point x="268" y="608" type="qcurve" smooth="yes"/>
      <point x="268" y="367" type="line"/>
      <point x="186" y="285" type="line"/>
      <point x="268" y="203" type="line"/>
      <point x="268" y="-28" type="line" smooth="yes"/>
      <point x="268" y="-60"/>
      <point x="300" y="-60" type="qcurve" smooth="yes"/>
      <point x="390" y="-60" type="line"/>
      <point x="390" y="-180" type="line"/>
      <point x="292" y="-180" type="line" smooth="yes"/>
      <point x="130" y="-180"/>
      <point x="130" y="-18" type="qcurve" smooth="yes"/>
      <point x="130" y="171" type="line"/>
    </contour>
  </outline>
</glyph>
<glyph name="bar" format="2">
  <advance width="312"/>
  <unicode hex="007C"/>
  <outline>
    <contour>
      <point x="94" y="-200" type="line"/>
      <point x="94" y="740" type="line"/>
      <point x="218" y="740" type="line"/>
      <point x="218" y="-200" type="line"/>
    </contour>
  </outline>
</glyph>
<glyph name="cent" format="2">
  <advance width="578"/>
  <unicode hex="00A2"/>
  <outline>
    <contour>
      <point x="82" y="162" type="qcurve" smooth="yes"/>
      <point x="82" y="366" type="line" smooth="yes"/>
      <point x="82" y="528"/>
      <point x="244" y="528" type="qcurve" smooth="yes"/>
      <point x="259" y="528" type="line"/>
      <point x="259" y="638" type="line"/>
      <point x="373" y="638" type="line"/>
      <point x="373" y="528" type="line"/>
      <point x="430" y="528" type="line"/>
      <point x="490" y="483" type="line"/>
      <point x="490" y="408" type="line"/>
      <point x="252" y="408" type="line" smooth="yes"/>
      <point x="220" y="408"/>
      <point x="220" y="376" type="qcurve" smooth="yes"/>
      <point x="220" y="152" type="line" smooth="yes"/>
      <point x="220" y="120"/>
      <point x="252" y="120" type="qcurve" smooth="yes"/>
      <point x="490" y="120" type="line"/>
      <point x="490" y="45" type="line"/>
      <point x="430" y="0" type="line"/>
      <point x="373" y="0" type="line"/>
      <point x="373" y="-110" type="line"/>
      <point x="259" y="-110" type="line"/>
      <point x="259" y="0" type="line"/>
      <point x="244" y="0" type="line" smooth="yes"/>
      <point x="82" y="0"/>
    </contour>
  </outline>
</glyph>
<glyph name="sterling" format="2">
  <advance width="578"/>
  <unicode hex="00A3"/>
  <outline>
    <contour>
      <point x="54" y="0" type="line"/>
      <point x="54" y="130" type="line"/>
      <point x="142" y="130" type="line"/>
      <point x="142" y="288" type="line"/>
      <point x="54" y="288" type="line"/>
      <point x="54" y="402" type="line"/>
      <point x="142" y="402" type="line"/>
      <point x="142" y="522" type="line" smooth="yes"/>
      <point x="142" y="690"/>
      <point x="310" y="690" type="qcurve" smooth="yes"/>
      <point x="447" y="690" type="line"/>
      <point x="514" y="638" type="line"/>
      <point x="514" y="560" type="line"/>
      <point x="316" y="560" type="line" smooth="yes"/>
      <point x="286" y="560"/>
      <point x="286" y="530" type="qcurve" smooth="yes"/>
      <point x="286" y="402" type="line"/>
      <point x="428" y="402" type="line"/>
      <point x="428" y="288" type="line"/>
      <point x="286" y="288" type="line"/>
      <point x="286" y="130" type="line"/>
      <point x="534" y="130" type="line"/>
      <point x="534" y="0" type="line"/>
    </contour>
  </outline>
</glyph>
<glyph name="currency" format="2">
  <advance width="578"/>
  <unicode hex="00A4"/>
  <outline>
    <contour>
      <point x="43" y="172" type="line"/>
      <point x="128" y="257" type="line"/>
      <point x="128" y="443" type="line"/>
      <point x="43" y="528" type="line"/>
      <point x="116" y="601" type="line"/>
      <point x="201" y="516" type="line"/>
      <point x="377" y="516" type="line"/>
      <point x="462" y="601" type="line"/>
      <point x="535" y="528" type="line"/>
      <point x="450" y="443" type="line"/>
      <point x="450" y="257" type="line"/>
      <point x="535" y="172" type="line"/>
      <point x="462" y="99" type="line"/>
      <point x="377" y="184" type="line"/>
      <point x="201" y="184" type="line"/>
      <point x="116" y="99" type="line"/>
    </contour>
    <contour>
      <point x="236" y="299" type="line" smooth="yes"/>
      <point x="236" y="287"/>
      <point x="248" y="287" type="qcurve" smooth="yes"/>
      <point x="330" y="287" type="line" smooth="yes"/>
      <point x="342" y="287"/>
      <point x="342" y="299" type="qcurve" smooth="yes"/>
      <point x="342" y="401" type="line" smooth="yes"/>
      <point x="342" y="413"/>
      <point x="330" y="413" type="qcurve" smooth="yes"/>
      <point x="248" y="413" type="line" smooth="yes"/>
      <point x="236" y="413"/>
      <point x="236" y="401" type="qcurve" smooth="yes"/>
    </contour>
  </outline>
</glyph>
<glyph name="yen" format="2">
  <advance width="578"/>
  <unicode hex="00A5"/>
  <outline>
    <contour>
      <point x="9" y="663" type="line"/>
      <point x="26" y="690" type="line"/>
      <point x="149" y="690" type="line"/>
      <point x="289" y="417" type="line"/>
      <point x="429" y="690" type="line"/>
      <point x="552" y="690" type="line"/>
      <point x="569" y="663" type="line"/>
      <point x="401" y="342" type="line"/>
      <point x="491" y="342" type="line"/>
      <point x="491" y="250" type="line"/>
      <point x="361" y="250" type="line"/>
      <point x="361" y="190" type="line"/>
      <point x="491" y="190" type="line"/>
      <point x="491" y="98" type="line"/>
      <point x="361" y="98" type="line"/>
      <point x="361" y="0" type="line"/>
      <point x="217" y="0" type="line"/>
      <point x="217" y="98" type="line"/>
      <point x="87" y="98" type="line"/>
      <point x="87" y="190" type="line"/>
      <point x="217" y="190" type="line"/>
      <point x="217" y="250" type="line"/>
      <point x="87" y="250" type="line"/>
      <point x="87" y="342" type="line"/>
      <point x="177" y="342" type="line"/>
    </contour>
  </outline>
</glyph>
<glyph name="ordfeminine" format="2">
  <advance width="404"/>
  <unicode hex="00AA"/>
  <outline>
    <contour>
      <point x="34" y="416" type="qcurve" smooth="yes"/>
      <point x="34" y="418" type="line" smooth="yes"/>
      <point x="34" y="538"/>
      <point x="156" y="538" type="qcurve" smooth="yes"/>
      <point x="252" y="538" type="line"/>
      <point x="252" y="580" type="line" smooth="yes"/>
      <point x="252" y="592"/>
      <point x="240" y="592" type="qcurve" smooth="yes"/>
      <point x="72" y="592" type="line"/>
      <point x="72" y="653" type="line"/>
      <point x="119" y="690" type="line"/>
      <point x="238" y="690" type="line" smooth="yes"/>
      <point x="360" y="690"/>
      <point x="360" y="568" type="qcurve" smooth="yes"/>
      <point x="360" y="296" type="line"/>
      <point x="156" y="296" type="line" smooth="yes"/>
      <point x="34" y="296"/>
    </contour>
    <contour>
      <point x="142" y="406" type="line" smooth="yes"/>
      <point x="142" y="394"/>
      <point x="154" y="394" type="qcurve" smooth="yes"/>
      <point x="252" y="394" type="line"/>
      <point x="252" y="450" type="line"/>
      <point x="154" y="450" type="line" smooth="yes"/>
      <point x="142" y="450"/>
      <point x="142" y="438" type="qcurve" smooth="yes"/>
    </contour>
  </outline>
</glyph>
<glyph name="registered" format="2">
  <advance width="844"/>
  <unicode hex="00AE"/>
  <outline>
    <contour>
      <point x="72" y="116" type="qcurve" smooth="yes"/>
      <point x="72" y="574" type="line" smooth="yes"/>
      <point x="72" y="690"/>
      <point x="188" y="690" type="qcurve" smooth="yes"/>
      <point x="656" y="690" type="line" smooth="yes"/>
      <point x="772" y="690"/>
      <point x="772" y="574" type="qcurve" smooth="yes"/>
      <point x="772" y="116" type="line" smooth="yes"/>
      <point x="772" y="0"/>
      <point x="656" y="0" type="qcurve" smooth="yes"/>
      <point x="188" y="0" type="line" smooth="yes"/>
      <point x="72" y="0"/>
    </contour>
    <contour>
      <point x="174" y="103" type="line" smooth="yes"/>
      <point x="174" y="92"/>
      <point x="185" y="92" type="qcurve" smooth="yes"/>
      <point x="659" y="92" type="line" smooth="yes"/>
      <point x="670" y="92"/>
      <point x="670" y="103" type="qcurve" smooth="yes"/>
      <point x="670" y="587" type="line" smooth="yes"/>
      <point x="670" y="598"/>
      <point x="659" y="598" type="qcurve" smooth="yes"/>
      <point x="185" y="598" type="line" smooth="yes"/>
      <point x="174" y="598"/>
      <point x="174" y="587" type="qcurve" smooth="yes"/>
    </contour>
    <contour>
      <point x="272" y="158" type="line"/>
      <point x="272" y="532" type="line"/>
      <point x="455" y="532" type="line" smooth="yes"/>
      <point x="577" y="532"/>
      <point x="577" y="410" type="qcurve" smooth="yes"/>
      <point x="577" y="392" type="line" smooth="yes"/>
      <point x="577" y="315"/>
      <point x="528" y="286" type="qcurve"/>
      <point x="581" y="181" type="line"/>
      <point x="569" y="158" type="line"/>
      <point x="475" y="158" type="line"/>
      <point x="418" y="270" type="line"/>
      <point x="380" y="270" type="line"/>
      <point x="380" y="158" type="line"/>
    </contour>
    <contour>
      <point x="380" y="368" type="line"/>
      <point x="457" y="368" type="line" smooth="yes"/>
      <point x="469" y="368"/>
      <point x="469" y="380" type="qcurve" smooth="yes"/>
      <point x="469" y="422" type="line" smooth="yes"/>
      <point x="469" y="434"/>
      <point x="457" y="434" type="qcurve" smooth="yes"/>
      <point x="380" y="434" type="line"/>
    </contour>
  </outline>
</glyph>
<glyph name="plusminus" format="2">
  <advance width="578"/>
  <unicode hex="00B1"/>
  <outline>
    <contour>
      <point x="60" y="0" type="line"/>
      <point x="60" y="118" type="line"/>
      <point x="518" y="118" type="line"/>
      <point x="518" y="0" type="line"/>
    </contour>
    <contour>
      <point x="60" y="316" type="line"/>
      <point x="60" y="434" type="line"/>
      <point x="227" y="434" type="line"/>
      <point x="227" y="596" type="line"/>
      <point x="351" y="596" type="line"/>
      <point x="351" y="434" type="line"/>
      <point x="518" y="434" type="line"/>
      <point x="518" y="316" type="line"/>
      <point x="351" y="316" type="line"/>
      <point x="351" y="154" type="line"/>
      <point x="227" y="154" type="line"/>
      <point x="227" y="316" type="line"/>
    </contour>
  </outline>
</glyph>
<glyph name="uni00B2" format="2">
  <advance width="366"/>
  <unicode hex="00B2"/>
  <outline>
    <contour>
      <point x="34" y="274" type="line"/>
      <point x="34" y="407" type="line" smooth="yes"/>
      <point x="34" y="499"/>
      <point x="124" y="517" type="qcurve" smooth="yes"/>
      <point x="209" y="534" type="line" smooth="yes"/>
      <point x="224" y="537"/>
      <point x="224" y="552" type="qcurve" smooth="yes"/>
      <point x="224" y="580" type="line" smooth="yes"/>
      <point x="224" y="592"/>
      <point x="212" y="592" type="qcurve" smooth="yes"/>
      <point x="46" y="592" type="line"/>
      <point x="46" y="653" type="line"/>
      <point x="93" y="690" type="line"/>
      <point x="210" y="690" type="line" smooth="yes"/>
      <point x="332" y="690"/>
      <point x="332" y="568" type="qcurve" smooth="yes"/>
      <point x="332" y="549" type="line" smooth="yes"/>
      <point x="332" y="457"/>
      <point x="242" y="439" type="qcurve" smooth="yes"/>
      <point x="157" y="422" type="line" smooth="yes"/>
      <point x="142" y="419"/>
      <point x="142" y="404" type="qcurve" smooth="yes"/>
      <point x="142" y="372" type="line"/>
      <point x="332" y="372" type="line"/>
      <point x="332" y="274" type="line"/>
    </contour>
  </outline>
</glyph>
<glyph name="uni00B3" format="2">
  <advance width="366"/>
  <unicode hex="00B3"/>
  <outline>
    <contour>
      <point x="40" y="311" type="line"/>
      <point x="40" y="372" type="line"/>
      <point x="212" y="372" type="line" smooth="yes"/>
      <point x="224" y="372"/>
      <point x="224" y="384" type="qcurve" smooth="yes"/>
      <point x="224" y="424" type="line" smooth="yes"/>
      <point x="224" y="436"/>
      <point x="212" y="436" type="qcurve" smooth="yes"/>
      <point x="84" y="436" type="line"/>
      <point x="84" y="534" type="line"/>
      <point x="212" y="534" type="line" smooth="yes"/>
      <point x="224" y="534"/>
      <point x="224" y="546" type="qcurve" smooth="yes"/>
      <point x="224" y="580" type="line" smooth="yes"/>
      <point x="224" y="592"/>
      <point x="212" y="592" type="qcurve" smooth="yes"/>
      <point x="46" y="592" type="line"/>
      <point x="46" y="653" type="line"/>
      <point x="93" y="690" type="line"/>
      <point x="210" y="690" type="line" smooth="yes"/>
      <point x="332" y="690"/>
      <point x="332" y="568" type="qcurve" smooth="yes"/>
      <point x="332" y="552" type="line" smooth="yes"/>
      <point x="332" y="525"/>
      <point x="315" y="508" type="qcurve" smooth="yes"/>
      <point x="292" y="485" type="line"/>
      <point x="315" y="462" type="line" smooth="yes"/>
      <point x="332" y="445"/>
      <point x="332" y="418" type="qcurve" smooth="yes"/>
      <point x="332" y="396" type="line" smooth="yes"/>
      <point x="332" y="274"/>
      <point x="210" y="274" type="qcurve" smooth="yes"/>
      <point x="87" y="274" type="line"/>
    </contour>
  </outline>
</glyph>
<glyph name="Oslash" format="2">
  <advance width="708"/>
  <unicode hex="00D8"/>
  <outline>
    <contour>
      <point x="72" y="168" type="qcurve" smooth="yes"/>
      <point x="72" y="522" type="line" smooth="yes"/>
      <point x="72" y="690"/>
      <point x="240" y="690" type="qcurve" smooth="yes"/>
      <point x="468" y="690" type="line" smooth="yes"/>
      <point x="636" y="690"/>
      <point x="636" y="522" type="qcurve" smooth="yes"/>
      <point x="636" y="168" type="line" smooth="yes"/>
      <point x="636" y="0"/>
      <point x="468" y="0" type="qcurve" smooth="yes"/>
      <point x="240" y="0" type="line" smooth="yes"/>
      <point x="72" y="0"/>
    </contour>
    <contour>
      <point x="216" y="289" type="line"/>
      <point x="491" y="537" type="line"/>
      <point x="488" y="560"/>
      <point x="462" y="560" type="qcurve" smooth="yes"/>
      <point x="246" y="560" type="line" smooth="yes"/>
      <point x="216" y="560"/>
      <point x="216" y="530" type="qcurve" smooth="yes"/>
    </contour>
    <contour>
      <point x="217" y="153" type="line"/>
      <point x="220" y="130"/>
      <point x="246" y="130" type="qcurve" smooth="yes"/>
      <point x="462" y="130" type="line" smooth="yes"/>
      <point x="492" y="130"/>
      <point x="492" y="160" type="qcurve" smooth="yes"/>
      <point x="492" y="401" type="line"/>
    </contour>
  </outline>
</glyph>
<glyph name="Thorn" format="2">
  <advance width="638"/>
  <unicode hex="00DE"/>
  <outline>
    <contour>
      <point x="82" y="0" type="line"/>
      <point x="82" y="690" type="line"/>
      <point x="226" y="690" type="line"/>
      <point x="226" y="590" type="line"/>
      <point x="418" y="590" type="line" smooth="yes"/>
      <point x="586" y="590"/>
      <point x="586" y="422" type="qcurve" smooth="yes"/>
      <point x="586" y="282" type="line" smooth="yes"/>
      <point x="586" y="114"/>
      <point x="418" y="114" type="qcurve" smooth="yes"/>
      <point x="226" y="114" type="line"/>
      <point x="226" y="0" type="line"/>
    </contour>
    <contour>
      <point x="226" y="244" type="line"/>
      <point x="412" y="244" type="line" smooth="yes"/>
      <point x="442" y="244"/>
      <point x="442" y="274" type="qcurve" smooth="yes"/>
      <point x="442" y="430" type="line" smooth="yes"/>
      <point x="442" y="460"/>
      <point x="412" y="460" type="qcurve" smooth="yes"/>
      <point x="226" y="460" type="line"/>
    </contour>
  </outline>
</glyph>
<glyph name="germandbls" format="2">
  <advance width="620"/>
  <unicode hex="00DF"/>
  <outline>
    <contour>
      <point x="72" y="0" type="line"/>
      <point x="72" y="578" type="line" smooth="yes"/>
      <point x="72" y="740"/>
      <point x="234" y="740" type="qcurve" smooth="yes"/>
      <point x="374" y="740" type="line" smooth="yes"/>
      <point x="536" y="740"/>
      <point x="536" y="578" type="qcurve" smooth="yes"/>
      <point x="536" y="491" type="line" smooth="yes"/>
      <point x="536" y="457"/>
      <point x="516" y="433" type="qcurve" smooth="yes"/>
      <point x="481" y="391" type="line"/>
      <point x="523" y="356" type="line" smooth="yes"/>
      <point x="556" y="328"/>
      <point x="556" y="276" type="qcurve" smooth="yes"/>
      <point x="556" y="162" type="line" smooth="yes"/>
      <point x="556" y="0"/>
      <point x="394" y="0" type="qcurve" smooth="yes"/>
      <point x="332" y="0" type="line"/>
      <point x="272" y="45" type="line"/>
      <point x="272" y="120" type="line"/>
      <point x="386" y="120" type="line" smooth="yes"/>
      <point x="418" y="120"/>
      <point x="418" y="152" type="qcurve" smooth="yes"/>
      <point x="418" y="293" type="line" smooth="yes"/>
      <point x="418" y="325"/>
      <point x="386" y="325" type="qcurve" smooth="yes"/>
      <point x="282" y="325" type="line"/>
      <point x="282" y="445" type="line"/>
      <point x="366" y="445" type="line" smooth="yes"/>
      <point x="398" y="445"/>
      <point x="398" y="477" type="qcurve" smooth="yes"/>
      <point x="398" y="588" type="line" smooth="yes"/>
      <point x="398" y="620"/>
      <point x="366" y="620" type="qcurve" smooth="yes"/>
      <point x="242" y="620" type="line" smooth="yes"/>
      <point x="210" y="620"/>
      <point x="210" y="588" type="qcurve" smooth="yes"/>
      <point x="210" y="0" type="line"/>
    </contour>
  </outline>
</glyph>
<glyph name="ae" format="2">
  <advance width="862"/>
  <unicode hex="00E6"/>
  <outline>
    <contour>
      <point x="206" y="0" type="line" smooth="yes"/>
      <point x="44" y="0"/>
      <point x="44" y="318"/>
      <point x="206" y="318" type="qcurve" smooth="yes"/>
      <point x="344" y="318" type="line"/>
      <point x="344" y="376" type="line" smooth="yes"/>
      <point x="344" y="408"/>
      <point x="312" y="408" type="qcurve" smooth="yes"/>
      <point x="100" y="408" type="line"/>
      <point x="100" y="483" type="line"/>
      <point x="160" y="528" type="line"/>
      <point x="303" y="528" type="line" smooth="yes"/>
      <point x="373" y="528"/>
      <point x="413" y="488" type="qcurve"/>
      <point x="453" y="528"/>
      <point x="524" y="528" type="qcurve" smooth="yes"/>
      <point x="636" y="528" type="line" smooth="yes"/>
      <point x="798" y="528"/>
      <point x="798" y="366" type="qcurve" smooth="yes"/>
      <point x="798" y="212" type="line"/>
      <point x="482" y="212" type="line"/>
      <point x="482" y="152" type="line" smooth="yes"/>
      <point x="482" y="120"/>
      <point x="514" y="120" type="qcurve" smooth="yes"/>
      <point x="778" y="120" type="line"/>
      <point x="778" y="45" type="line"/>
      <point x="718" y="0" type="line"/>
      <point x="524" y="0" type="line" smooth="yes"/>
      <point x="453" y="0"/>
      <point x="413" y="40" type="qcurve"/>
      <point x="373" y="0"/>
      <point x="303" y="0" type="qcurve" smooth="yes"/>
    </contour>
    <contour>
      <point x="182" y="152" type="line" smooth="yes"/>
      <point x="182" y="120"/>
      <point x="214" y="120" type="qcurve" smooth="yes"/>
      <point x="312" y="120" type="line" smooth="yes"/>
      <point x="344" y="120"/>
      <point x="344" y="152" type="qcurve" smooth="yes"/>
      <point x="344" y="210" type="line"/>
      <point x="214" y="210" type="line" smooth="yes"/>
      <point x="182" y="210"/>
      <point x="182" y="178" type="qcurve" smooth="yes"/>
    </contour>
    <contour>
      <point x="482" y="320" type="line"/>
      <point x="660" y="320" type="line"/>
      <point x="660" y="376" type="line" smooth="yes"/>
      <point x="660" y="408"/>
      <point x="628" y="408" type="qcurve" smooth="yes"/>
      <point x="514" y="408" type="line" smooth="yes"/>
      <point x="482" y="408"/>
      <point x="482" y="376" type="qcurve" smooth="yes"/>
    </contour>
  </outline>
</glyph>
<glyph name="eth" format="2">
  <advance width="592"/>
  <unicode hex="00F0"/>
  <outline>
    <contour>
      <point x="64" y="162" type="qcurve" smooth="yes"/>
      <point x="64" y="288" type="line" smooth="yes"/>
      <point x="64" y="450"/>
      <point x="226" y="450" type="qcurve" smooth="yes"/>
      <point x="374" y="450" type="line"/>
      <point x="315" y="542" type="line"/>
      <point x="206" y="490" type="line"/>
      <point x="162" y="585" type="line"/>
      <point x="259" y="632" type="line"/>
      <point x="219" y="694" type="line"/>
      <point x="328" y="764" type="line"/>
      <point x="376" y="688" type="line"/>
      <point x="464" y="729" type="line"/>
      <point x="508" y="634" type="line"/>
      <point x="432" y="599" type="line"/>
      <point x="489" y="509" type="line" smooth="yes"/>
      <point x="528" y="447"/>
      <point x="528" y="383" type="qcurve" smooth="yes"/>
      <point x="528" y="162" type="line" smooth="yes"/>
      <point x="528" y="0"/>
      <point x="366" y="0" type="qcurve" smooth="yes"/>
      <point x="226" y="0" type="line" smooth="yes"/>
      <point x="64" y="0"/>
    </contour>
    <contour>
      <point x="202" y="152" type="line" smooth="yes"/>
      <point x="202" y="120"/>
      <point x="234" y="120" type="qcurve" smooth="yes"/>
      <point x="358" y="120" type="line" smooth="yes"/>
      <point x="390" y="120"/>
      <point x="390" y="152" type="qcurve" smooth="yes"/>
      <point x="390" y="330" type="line"/>
      <point x="234" y="330" type="line" smooth="yes"/>
      <point x="202" y="330"/>
      <point x="202" y="298" type="qcurve" smooth="yes"/>
    </contour>
  </outline>
</glyph>
<glyph name="thorn" format="2">
  <advance width="590"/>
  <unicode hex="00FE"/>
  <outline>
    <contour>
      <point x="72" y="-200" type="line"/>
      <point x="72" y="740" type="line"/>
      <point x="210" y="740" type="line"/>
      <point x="210" y="528" type="line"/>
      <point x="364" y="528" type="line" smooth="yes"/>
      <point x="526" y="528"/>
      <point x="526" y="366" type="qcurve" smooth="yes"/>
      <point x="526" y="162" type="line" smooth="yes"/>
      <point x="526" y="0"/>
      <point x="364" y="0" type="qcurve" smooth="yes"/>
      <point x="210" y="0" type="line"/>
      <point x="210" y="-200" type="line"/>
    </contour>
    <contour>
      <point x="210" y="120" type="line"/>
      <point x="356" y="120" type="line" smooth="yes"/>
      <point x="388" y="120"/>
      <point x="388" y="152" type="qcurve" smooth="yes"/>
      <point x="388" y="376" type="line" smooth="yes"/>
      <point x="388" y="408"/>
      <point x="356" y="408" type="qcurve" smooth="yes"/>
      <point x="210" y="408" type="line"/>
    </contour>
  </outline>
</glyph>
<glyph name="dcroat" format="2">
  <advance width="590"/>
  <unicode hex="0111"/>
  <outline>
    <contour>
      <point x="64" y="162" type="qcurve" smooth="yes"/>
      <point x="64" y="366" type="line" smooth="yes"/>
      <point x="64" y="528"/>
      <point x="226" y="528" type="qcurve" smooth="yes"/>
      <point x="380" y="528" type="line"/>
      <point x="380" y="587" type="line"/>
      <point x="234" y="587" type="line"/>
      <point x="234" y="681" type="line"/>
      <point x="380" y="681" type="line"/>
      <point x="380" y="740" type="line"/>
      <point x="518" y="740" type="line"/>
      <point x="518" y="681" type="line"/>
      <point x="586" y="681" type="line"/>
      <point x="586" y="587" type="line"/>
      <point x="518" y="587" type="line"/>
      <point x="518" y="0" type="line"/>
      <point x="226" y="0" type="line" smooth="yes"/>
      <point x="64" y="0"/>
    </contour>
    <contour>
      <point x="202" y="152" type="line" smooth="yes"/>
      <point x="202" y="120"/>
      <point x="234" y="120" type="qcurve" smooth="yes"/>
      <point x="380" y="120" type="line"/>
      <point x="380" y="408" type="line"/>
      <point x="234" y="408" type="line" smooth="yes"/>
      <point x="202" y="408"/>
      <point x="202" y="376" type="qcurve" smooth="yes"/>
    </contour>
  </outline>
</glyph>
<glyph name="Lslash" format="2">
  <advance width="577"/>
  <unicode hex="0141"/>
  <outline>
    <contour>
      <point x="10" y="302" type="line"/>
      <point x="111" y="360" type="line"/>
      <point x="111" y="690" type="line"/>
      <point x="255" y="690" type="line"/>
      <point x="255" y="443" type="line"/>
      <point x="370" y="510" type="line"/>
      <point x="426" y="413" type="line"/>
      <point x="255" y="314" type="line"/>
      <point x="255" y="130" type="line"/>
      <point x="553" y="130" type="line"/>
      <point x="553" y="0" type="line"/>
      <point x="111" y="0" type="line"/>
      <point x="111" y="231" type="line"/>
      <point x="66" y="205" type="line"/>
    </contour>
  </outline>
</glyph>
<glyph name="OE" format="2">
  <advance width="976"/>
  <unicode hex="0152"/>
  <outline>
    <contour>
      <point x="72" y="168" type="qcurve" smooth="yes"/>
      <point x="72" y="522" type="line" smooth="yes"/>
      <point x="72" y="690"/>
      <point x="240" y="690" type="qcurve" smooth="yes"/>
      <point x="926" y="690" type="line"/>
      <point x="926" y="560" type="line"/>
      <point x="610" y="560" type="line"/>
      <point x="610" y="420" type="line"/>
      <point x="896" y="420" type="line"/>
      <point x="896" y="290" type="line"/>
      <point x="610" y="290" type="line"/>
      <point x="610" y="130" type="line"/>
      <point x="926" y="130" type="line"/>
      <point x="926" y="0" type="line"/>
      <point x="240" y="0" type="line" smooth="yes"/>
      <point x="72" y="0"/>
    </contour>
    <contour>
      <point x="216" y="160" type="line" smooth="yes"/>
      <point x="216" y="130"/>
      <point x="246" y="130" type="qcurve" smooth="yes"/>
      <point x="466" y="130" type="line"/>
      <point x="466" y="560" type="line"/>
      <point x="246" y="560" type="line" smooth="yes"/>
      <point x="216" y="560"/>
      <point x="216" y="530" type="qcurve" smooth="yes"/>
    </contour>
  </outline>
</glyph>
<glyph name="oe" format="2">
  <advance width="908"/>
  <unicode hex="0153"/>
  <outline>
    <contour>
      <point x="64" y="162" type="qcurve" smooth="yes"/>
      <point x="64" y="366" type="line" smooth="yes"/>
      <point x="64" y="528"/>
      <point x="226" y="528" type="qcurve" smooth="yes"/>
      <point x="349" y="528" type="line" smooth="yes"/>
      <point x="419" y="528"/>
      <point x="459" y="488" type="qcurve"/>
      <point x="499" y="528"/>
      <point x="569" y="528" type="qcurve" smooth="yes"/>
      <point x="682" y="528" type="line" smooth="yes"/>
      <point x="844" y="528"/>
      <point x="844" y="366" type="qcurve" smooth="yes"/>
      <point x="844" y="212" type="line"/>
      <point x="528" y="212" type="line"/>
      <point x="528" y="152" type="line" smooth="yes"/>
      <point x="528" y="120"/>
      <point x="560" y="120" type="qcurve" smooth="yes"/>
      <point x="824" y="120" type="line"/>
      <point x="824" y="45" type="line"/>
      <point x="764" y="0" type="line"/>
      <point x="569" y="0" type="line" smooth="yes"/>
      <point x="499" y="0"/>
      <point x="459" y="40" type="qcurve"/>
      <point x="419" y="0"/>
      <point x="349" y="0" type="qcurve" smooth="yes"/>
      <point x="226" y="0" type="line" smooth="yes"/>
      <point x="64" y="0"/>
    </contour>
    <contour>
      <point x="202" y="152" type="line" smooth="yes"/>
      <point x="202" y="120"/>
      <point x="234" y="120" type="qcurve" smooth="yes"/>
      <point x="358" y="120" type="line" smooth="yes"/>
      <point x="390" y="120"/>
      <point x="390" y="152" type="qcurve" smooth="yes"/>
      <point x="390" y="376" type="line" smooth="yes"/>
      <point x="390" y="408"/>
      <point x="358" y="408" type="qcurve" smooth="yes"/>
      <point x="234" y="408" type="line" smooth="yes"/>
      <point x="202" y="408"/>
      <point x="202" y="376" type="qcurve" smooth="yes"/>
    </contour>
    <contour>
      <point x="528" y="320" type="line"/>
      <point x="706" y="320" type="line"/>
      <point x="706" y="376" type="line" smooth="yes"/>
      <point x="706" y="408"/>
      <point x="674" y="408" type="qcurve" smooth="yes"/>
      <point x="560" y="408" type="line" smooth="yes"/>
      <point x="528" y="408"/>
      <point x="528" y="376" type="qcurve" smooth="yes"/>
    </contour>
  </outline>
</glyph>
<glyph name="uni0300" format="2">
  <advance width="0"/>
  <unicode hex="0300"/>
  <outline>
    <contour>
      <point x="-419" y="724" type="line"/>
      <point x="-343" y="796" type="line"/>
      <point x="-205" y="639" type="line"/>
      <point x="-271" y="576" type="line"/>
    </contour>
  </outline>
</glyph>
<glyph name="uni0301" format="2">
  <advance width="0"/>
  <unicode hex="0301"/>
  <outline>
    <contour>
      <point x="-375" y="639" type="line"/>
      <point x="-237" y="796" type="line"/>
      <point x="-161" y="724" type="line"/>
      <point x="-309" y="576" type="line"/>
    </contour>
  </outline>
</glyph>
<glyph name="uni0303" format="2">
  <advance width="0"/>
  <unicode hex="0303"/>
  <outline>
    <contour>
      <point x="-467" y="652" type="line"/>
      <point x="-398" y="721" type="line" smooth="yes"/>
      <point x="-379" y="740"/>
      <point x="-309" y="740"/>
      <point x="-290" y="721" type="qcurve" smooth="yes"/>
      <point x="-242" y="673" type="line" smooth="yes"/>
      <point x="-239" y="670"/>
      <point x="-233" y="670"/>
      <point x="-230" y="673" type="qcurve" smooth="yes"/>
      <point x="-172" y="731" type="line"/>
      <point x="-113" y="672" type="line"/>
      <point x="-182" y="603" type="line" smooth="yes"/>
      <point x="-201" y="584"/>
      <point x="-271" y="584"/>
      <point x="-290" y="603" type="qcurve" smooth="yes"/>
      <point x="-338" y="651" type="line" smooth="yes"/>
      <point x="-341" y="654"/>
      <point x="-347" y="654"/>
      <point x="-350" y="651" type="qcurve" smooth="yes"/>
      <point x="-408" y="593" type="line"/>
    </contour>
  </outline>
</glyph>
<glyph name="uni0306" format="2">
  <advance width="0"/>
  <unicode hex="0306"/>
  <outline>
    <contour>
      <point x="-428" y="681" type="qcurve" smooth="yes"/>
      <point x="-428" y="746" type="line"/>
      <point x="-348" y="746" type="line"/>
      <point x="-348" y="684" type="line" smooth="yes"/>
      <point x="-348" y="676"/>
      <point x="-340" y="676" type="qcurve" smooth="yes"/>
      <point x="-240" y="676" type="line" smooth="yes"/>
      <point x="-232" y="676"/>
      <point x="-232" y="684" type="qcurve" smooth="yes"/>
      <point x="-232" y="746" type="line"/>
      <point x="-152" y="746" type="line"/>
      <point x="-152" y="681" type="line" smooth="yes"/>
      <point x="-152" y="596"/>
      <point x="-237" y="596" type="qcurve" smooth="yes"/>
      <point x="-343" y="596" type="line" smooth="yes"/>
      <point x="-428" y="596"/>
    </contour>
  </outline>
</glyph>
<glyph name="uni0308" format="2">
  <advance width="0"/>
  <unicode hex="0308"/>
  <outline>
    <contour>
      <point x="-450" y="604" type="line"/>
      <point x="-450" y="728" type="line"/>
      <point x="-330" y="728" type="line"/>
      <point x="-330" y="604" type="line"/>
    </contour>
    <contour>
      <point x="-250" y="604" type="line"/>
      <point x="-250" y="728" type="line"/>
      <point x="-130" y="728" type="line"/>
      <point x="-130" y="604" type="line"/>
    </contour>
  </outline>
</glyph>
<glyph name="uni030C" format="2">
  <advance width="0"/>
  <unicode hex="030C"/>
  <outline>
    <contour>
      <point x="-447" y="724" type="line"/>
      <point x="-388" y="786" type="line"/>
      <point x="-290" y="693" type="line"/>
      <point x="-192" y="786" type="line"/>
      <point x="-133" y="724" type="line"/>
      <point x="-290" y="570" type="line"/>
    </contour>
  </outline>
</glyph>
<glyph name="uni0326" format="2">
  <advance width="0"/>
  <unicode hex="0326"/>
  <outline>
    <contour>
      <point x="-378" y="-179" type="line"/>
      <point x="-348" y="-50" type="line"/>
      <point x="-244" y="-50" type="line"/>
      <point x="-230" y="-71" type="line"/>
      <point x="-285" y="-205" type="line"/>
    </contour>
  </outline>
</glyph>
<glyph name="uni0327" format="2">
  <advance width="0"/>
  <unicode hex="0327"/>
  <outline>
    <contour>
      <point x="-402" y="-90" type="line"/>
      <point x="-300" y="-90" type="line" smooth="yes"/>
      <point x="-288" y="-90"/>
      <point x="-288" y="-78" type="qcurve" smooth="yes"/>
      <point x="-288" y="60" type="line"/>
      <point x="-182" y="60" type="line"/>
      <point x="-182" y="-64" type="line" smooth="yes"/>
      <point x="-182" y="-186"/>
      <point x="-304" y="-186" type="qcurve" smooth="yes"/>
      <point x="-355" y="-186" type="line"/>
      <point x="-402" y="-149" type="line"/>
    </contour>
  </outline>
</glyph>
<glyph name="emdash" format="2">
  <advance width="1000"/>
  <unicode hex="2014"/>
  <outline>
    <contour>
      <point x="40" y="246" type="line"/>
      <point x="40" y="364" type="line"/>
      <point x="960" y="364" type="line"/>
      <point x="960" y="246" type="line"/>
    </contour>
  </outline>
</glyph>
<glyph name="quoteleft" format="2">
  <advance width="278"/>
  <unicode hex="2018"/>
  <outline>
    <contour>
      <point x="36" y="487" type="line"/>
      <point x="140" y="760" type="line"/>
      <point x="242" y="734" type="line"/>
      <point x="173" y="466" type="line"/>
      <point x="50" y="466" type="line"/>
    </contour>
  </outline>
</glyph>
<glyph name="quoteright" format="2">
  <advance width="278"/>
  <unicode hex="2019"/>
  <outline>
    <contour>
      <point x="32" y="472" type="line"/>
      <point x="101" y="740" type="line"/>
      <point x="224" y="740" type="line"/>
      <point x="238" y="719" type="line"/>
      <point x="134" y="446" type="line"/>
    </contour>
  </outline>
</glyph>
<glyph name="quotesinglbase" format="2">
  <advance width="278"/>
  <unicode hex="201A"/>
  <outline>
    <contour>
      <point x="22" y="-124" type="line"/>
      <point x="91" y="144" type="line"/>
      <point x="214" y="144" type="line"/>
      <point x="228" y="123" type="line"/>
      <point x="124" y="-150" type="line"/>
    </contour>
  </outline>
</glyph>
<glyph name="bullet" format="2">
  <advance width="368"/>
  <unicode hex="2022"/>
  <outline>
    <contour>
      <point x="64" y="240" type="line"/>
      <point x="64" y="480" type="line"/>
      <point x="304" y="480" type="line"/>
      <point x="304" y="240" type="line"/>
    </contour>
  </outline>
</glyph>
<glyph name="fraction" format="2">
  <advance width="150"/>
  <unicode hex="2044"/>
  <outline>
    <contour>
      <point x="-140" y="40" type="line"/>
      <point x="190" y="700" type="line"/>
      <point x="290" y="650" type="line"/>
      <point x="-40" y="-10" type="line"/>
    </contour>
  </outline>
</glyph>
<glyph name="uni2070" format="2">
  <advance width="366"/>
  <unicode hex="2070"/>
  <outline>
    <contour>
      <point x="34" y="396" type="qcurve" smooth="yes"/>
      <point x="34" y="568" type="line" smooth="yes"/>
      <point x="34" y="690"/>
      <point x="156" y="690" type="qcurve" smooth="yes"/>
      <point x="210" y="690" type="line" smooth="yes"/>
      <point x="332" y="690"/>
      <point x="332" y="568" type="qcurve" smooth="yes"/>
      <point x="332" y="396" type="line" smooth="yes"/>
      <point x="332" y="274"/>
      <point x="210" y="274" type="qcurve" smooth="yes"/>
      <point x="156" y="274" type="line" smooth="yes"/>
      <point x="34" y="274"/>
    </contour>
    <contour>
      <point x="142" y="384" type="line" smooth="yes"/>
      <point x="142" y="372"/>
      <point x="154" y="372" type="qcurve" smooth="yes"/>
      <point x="212" y="372" type="line" smooth="yes"/>
      <point x="224" y="372"/>
      <point x="224" y="384" type="qcurve" smooth="yes"/>
      <point x="224" y="580" type="line" smooth="yes"/>
      <point x="224" y="592"/>
      <point x="212" y="592" type="qcurve" smooth="yes"/>
      <point x="154" y="592" type="line" smooth="yes"/>
      <point x="142" y="592"/>
      <point x="142" y="580" type="qcurve" smooth="yes"/>
    </contour>
  </outline>
</glyph>
<glyph name="uni2074" format="2">
  <advance width="366"/>
  <unicode hex="2074"/>
  <outline>
    <contour>
      <point x="34" y="326" type="line"/>
      <point x="34" y="416" type="line"/>
      <point x="155" y="690" type="line"/>
      <point x="251" y="690" type="line"/>
      <point x="263" y="669" type="line"/>
      <point x="153" y="424" type="line"/>
      <point x="224" y="424" type="line"/>
      <point x="224" y="524" type="line"/>
      <point x="332" y="524" type="line"/>
      <point x="332" y="274" type="line"/>
      <point x="224" y="274" type="line"/>
      <point x="224" y="326" type="line"/>
    </contour>
  </outline>
</glyph>
<glyph name="uni20BD" format="2">
  <advance width="578"/>
  <unicode hex="20BD"/>
  <outline>
    <contour>
      <point x="32" y="111" type="line"/>
      <point x="32" y="225" type="line"/>
      <point x="82" y="225" type="line"/>
      <point x="82" y="285" type="line"/>
      <point x="32" y="285" type="line"/>
      <point x="32" y="405" type="line"/>
      <point x="82" y="405" type="line"/>
      <point x="82" y="690" type="line"/>
      <point x="368" y="690" type="line" smooth="yes"/>
      <point x="536" y="690"/>
      <point x="536" y="522" type="qcurve" smooth="yes"/>
      <point x="536" y="453" type="line" smooth="yes"/>
      <point x="536" y="285"/>
      <point x="368" y="285" type="qcurve" smooth="yes"/>
      <point x="226" y="285" type="line"/>
      <point x="226" y="225" type="line"/>
      <point x="410" y="225" type="line"/>
      <point x="410" y="111" type="line"/>
      <point x="226" y="111" type="line"/>
      <point x="226" y="0" type="line"/>
      <point x="82" y="0" type="line"/>
      <point x="82" y="111" type="line"/>
    </contour>
    <contour>
      <point x="226" y="405" type="line"/>
      <point x="362" y="405" type="line" smooth="yes"/>
      <point x="392" y="405"/>
      <point x="392" y="435" type="qcurve" smooth="yes"/>
      <point x="392" y="530" type="line" smooth="yes"/>
      <point x="392" y="560"/>
      <point x="362" y="560" type="qcurve" smooth="yes"/>
      <point x="226" y="560" type="line"/>
    </contour>
  </outline>
</glyph>
<glyph name="product" format="2">
  <advance width="708"/>
  <unicode hex="220F"/>
  <outline>
    <contour>
      <point x="82" y="-100" type="line"/>
      <point x="82" y="690" type="line"/>
      <point x="626" y="690" type="line"/>
      <point x="626" y="-100" type="line"/>
      <point x="482" y="-100" type="line"/>
      <point x="482" y="560" type="line"/>
      <point x="226" y="560" type="line"/>
      <point x="226" y="-100" type="line"/>
    </contour>
  </outline>
</glyph>
<glyph name="minus" format="2">
  <advance width="578"/>
  <unicode hex="2212"/>
  <outline>
    <contour>
      <point x="60" y="276" type="line"/>
      <point x="60" y="394" type="line"/>
      <point x="518" y="394" type="line"/>
      <point x="518" y="276" type="line"/>
    </contour>
  </outline>
</glyph>
<glyph name="radical" format="2">
  <advance width="612"/>
  <unicode hex="221A"/>
  <outline>
    <contour>
      <point x="20" y="302" type="line"/>
      <point x="20" y="400" type="line"/>
      <point x="199" y="400" type="line"/>
      <point x="283" y="148" type="line"/>
      <point x="507" y="797" type="line"/>
      <point x="611" y="761" type="line"/>
      <point x="342" y="-10" type="line"/>
      <point x="217" y="-10" type="line"/>
      <point x="110" y="302" type="line"/>
    </contour>
  </outline>
</glyph>
<glyph name="infinity" format="2">
  <advance width="614"/>
  <unicode hex="221E"/>
  <outline>
    <contour>
      <point x="32" y="297" type="qcurve" smooth="yes"/>
      <point x="32" y="373" type="line" smooth="yes"/>
      <point x="32" y="495"/>
      <point x="154" y="495" type="qcurve" smooth="yes"/>
      <point x="235" y="495" type="line" smooth="yes"/>
      <point x="273" y="495"/>
      <point x="307" y="461" type="qcurve"/>
      <point x="341" y="495"/>
      <point x="379" y="495" type="qcurve" smooth="yes"/>
      <point x="460" y="495" type="line" smooth="yes"/>
      <point x="582" y="495"/>
      <point x="582" y="373" type="qcurve" smooth="yes"/>
      <point x="582" y="297" type="line" smooth="yes"/>
      <point x="582" y="175"/>
      <point x="460" y="175" type="qcurve" smooth="yes"/>
      <point x="379" y="175" type="line" smooth="yes"/>
      <point x="341" y="175"/>
      <point x="307" y="209" type="qcurve"/>
      <point x="273" y="175"/>
      <point x="235" y="175" type="qcurve" smooth="yes"/>
      <point x="154" y="175" type="line" smooth="yes"/>
      <point x="32" y="175"/>
    </contour>
    <contour>
      <point x="140" y="285" type="line" smooth="yes"/>
      <point x="140" y="273"/>
      <point x="152" y="273" type="qcurve" smooth="yes"/>
      <point x="241" y="273" type="line" smooth="yes"/>
      <point x="253" y="273"/>
      <point x="253" y="285" type="qcurve" smooth="yes"/>
      <point x="253" y="385" type="line" smooth="yes"/>
      <point x="253" y="397"/>
      <point x="241" y="397" type="qcurve" smooth="yes"/>
      <point x="152" y="397" type="line" smooth="yes"/>
      <point x="140" y="397"/>
      <point x="140" y="385" type="qcurve" smooth="yes"/>
    </contour>
    <contour>
      <point x="361" y="285" type="line" smooth="yes"/>
      <point x="361" y="273"/>
      <point x="373" y="273" type="qcurve" smooth="yes"/>
      <point x="462" y="273" type="line" smooth="yes"/>
      <point x="474" y="273"/>
      <point x="474" y="285" type="qcurve" smooth="yes"/>
      <point x="474" y="385" type="line" smooth="yes"/>
      <point x="474" y="397"/>
      <point x="462" y="397" type="qcurve" smooth="yes"/>
      <point x="373" y="397" type="line" smooth="yes"/>
      <point x="361" y="397"/>
      <point x="361" y="385" type="qcurve" smooth="yes"/>
    </contour>
  </outline>
</glyph>
<glyph name="integral" format="2">
  <advance width="478"/>
  <unicode hex="222B"/>
  <outline>
    <contour>
      <point x="20" y="-80" type="line"/>
      <point x="138" y="-80" type="line" smooth="yes"/>
      <point x="170" y="-80"/>
      <point x="170" y="-48" type="qcurve" smooth="yes"/>
      <point x="170" y="578" type="line" smooth="yes"/>
      <point x="170" y="740"/>
      <point x="332" y="740" type="qcurve" smooth="yes"/>
      <point x="398" y="740" type="line"/>
      <point x="458" y="695" type="line"/>
      <point x="458" y="620" type="line"/>
      <point x="340" y="620" type="line" smooth="yes"/>
      <point x="308" y="620"/>
      <point x="308" y="588" type="qcurve" smooth="yes"/>
      <point x="308" y="-38" type="line" smooth="yes"/>
      <point x="308" y="-200"/>
      <point x="146" y="-200" type="qcurve" smooth="yes"/>
      <point x="80" y="-200" type="line"/>
      <point x="20" y="-155" type="line"/>
    </contour>
  </outline>
</glyph>
<glyph name="notequal" format="2">
  <advance width="578"/>
  <unicode hex="2260"/>
  <outline>
    <contour>
      <point x="60" y="166" type="line"/>
      <point x="60" y="284" type="line"/>
      <point x="203" y="284" type="line"/>
      <point x="255" y="386" type="line"/>
      <point x="60" y="386" type="line"/>
      <point x="60" y="504" type="line"/>
      <point x="315" y="504" type="line"/>
      <point x="371" y="616" type="line"/>
      <point x="467" y="567" type="line"/>
      <point x="435" y="504" type="line"/>
      <point x="518" y="504" type="line"/>
      <point x="518" y="386" type="line"/>
      <point x="375" y="386" type="line"/>
      <point x="323" y="284" type="line"/>
      <point x="518" y="284" type="line"/>
      <point x="518" y="166" type="line"/>
      <point x="263" y="166" type="line"/>
      <point x="207" y="54" type="line"/>
      <point x="111" y="103" type="line"/>
      <point x="143" y="166" type="line"/>
    </contour>
  </outline>
</glyph>
<glyph name="greaterequal" format="2">
  <advance width="578"/>
  <unicode hex="2265"/>
  <outline>
    <contour>
      <point x="60" y="0" type="line"/>
      <point x="60" y="118" type="line"/>
      <point x="518" y="118" type="line"/>
      <point x="518" y="0" type="line"/>
    </contour>
    <contour>
      <point x="54" y="253" type="line"/>
      <point x="387" y="409" type="line"/>
      <point x="54" y="565" type="line"/>
      <point x="104" y="670" type="line"/>
      <point x="514" y="474" type="line"/>
      <point x="514" y="344" type="line"/>
      <point x="104" y="148" type="line"/>
    </contour>
  </outline>
</glyph>
<glyph name="lozenge" format="2">
  <advance width="578"/>
  <unicode hex="25CA"/>
  <outline>
    <contour>
      <point x="29" y="345" type="line"/>
      <point x="227" y="690" type="line"/>
      <point x="351" y="690" type="line"/>
      <point x="549" y="345" type="line"/>
      <point x="351" y="0" type="line"/>
      <point x="227" y="0" type="line"/>
    </contour>
    <contour>
      <point x="153" y="345" type="line"/>
      <point x="289" y="108" type="line"/>
      <point x="425" y="345" type="line"/>
      <point x="289" y="582" type="line"/>
    </contour>
  </outline>
</glyph>
<glyph name="uni0300.cap" format="2">
  <advance width="0"/>
  <outline>
    <contour>
      <point x="-459" y="876" type="line"/>
      <point x="-383" y="948" type="line"/>
      <point x="-245" y="791" type="line"/>
      <point x="-311" y="728" type="line"/>
    </contour>
  </outline>
</glyph>
<glyph name="uni0301.cap" format="2">
  <advance width="0"/>
  <outline>
    <contour>
      <point x="-415" y="791" type="line"/>
      <point x="-277" y="948" type="line"/>
      <point x="-201" y="876" type="line"/>
      <point x="-349" y="728" type="line"/>
    </contour>
  </outline>
</glyph>
<glyph name="uni0302.cap" format="2">
  <advance width="0"/>
  <outline>
    <contour>
      <point x="-487" y="794" type="line"/>
      <point x="-330" y="948" type="line"/>
      <point x="-173" y="794" type="line"/>
      <point x="-232" y="732" type="line"/>
      <point x="-330" y="825" type="line"/>
      <point x="-428" y="732" type="line"/>
    </contour>
  </outline>
</glyph>
<glyph name="uni0304.cap" format="2">
  <advance width="0"/>
  <outline>
    <contour>
      <point x="-476" y="770" type="line"/>
      <point x="-476" y="866" type="line"/>
      <point x="-184" y="866" type="line"/>
      <point x="-184" y="770" type="line"/>
    </contour>
  </outline>
</glyph>
<glyph name="uni0306.cap" format="2">
  <advance width="0"/>
  <outline>
    <contour>
      <point x="-468" y="833" type="qcurve" smooth="yes"/>
      <point x="-468" y="898" type="line"/>
      <point x="-388" y="898" type="line"/>
      <point x="-388" y="836" type="line" smooth="yes"/>
      <point x="-388" y="828"/>
      <point x="-380" y="828" type="qcurve" smooth="yes"/>
      <point x="-280" y="828" type="line" smooth="yes"/>
      <point x="-272" y="828"/>
      <point x="-272" y="836" type="qcurve" smooth="yes"/>
      <point x="-272" y="898" type="line"/>
      <point x="-192" y="898" type="line"/>
      <point x="-192" y="833" type="line" smooth="yes"/>
      <point x="-192" y="748"/>
      <point x="-277" y="748" type="qcurve" smooth="yes"/>
      <point x="-383" y="748" type="line" smooth="yes"/>
      <point x="-468" y="748"/>
    </contour>
  </outline>
</glyph>
<glyph name="uni0307.cap" format="2">
  <advance width="0"/>
  <outline>
    <contour>
      <point x="-401" y="766" type="line"/>
      <point x="-401" y="900" type="line"/>
      <point x="-259" y="900" type="line"/>
      <point x="-259" y="766" type="line"/>
    </contour>
  </outline>
</glyph>
<glyph name="uni030A.cap" format="2">
  <advance width="0"/>
  <outline>
    <contour>
      <point x="-446" y="801" type="qcurve" smooth="yes"/>
      <point x="-446" y="859" type="line" smooth="yes"/>
      <point x="-446" y="939"/>
      <point x="-366" y="939" type="qcurve" smooth="yes"/>
      <point x="-294" y="939" type="line" smooth="yes"/>
      <point x="-214" y="939"/>
      <point x="-214" y="859" type="qcurve" smooth="yes"/>
      <point x="-214" y="801" type="line" smooth="yes"/>
      <point x="-214" y="721"/>
      <point x="-294" y="721" type="qcurve" smooth="yes"/>
      <point x="-366" y="721" type="line" smooth="yes"/>
      <point x="-446" y="721"/>
    </contour>
    <contour>
      <point x="-368" y="797" type="line" smooth="yes"/>
      <point x="-368" y="789"/>
      <point x="-360" y="789" type="qcurve" smooth="yes"/>
      <point x="-300" y="789" type="line" smooth="yes"/>
      <point x="-292" y="789"/>
      <point x="-292" y="797" type="qcurve" smooth="yes"/>
      <point x="-292" y="863" type="line" smooth="yes"/>
      <point x="-292" y="871"/>
      <point x="-300" y="871" type="qcurve" smooth="yes"/>
      <point x="-360" y="871" type="line" smooth="yes"/>
      <point x="-368" y="871"/>
      <point x="-368" y="863" type="qcurve" smooth="yes"/>
    </contour>
  </outline>
</glyph>
<glyph name="uni030B.cap" format="2">
  <advance width="0"/>
  <outline>
    <contour>
      <point x="-494" y="783" type="line"/>
      <point x="-378" y="948" type="line"/>
      <point x="-297" y="886" type="line"/>
      <point x="-424" y="728" type="line"/>
    </contour>
    <contour>
      <point x="-309" y="783" type="line"/>
      <point x="-193" y="948" type="line"/>
      <point x="-112" y="886" type="line"/>
      <point x="-239" y="728" type="line"/>
    </contour>
  </outline>
</glyph>
<glyph name="uni030C.alt" format="2">
  <advance width="0"/>
  <outline>
    <contour>
      <point x="-71" y="583" type="line"/>
      <point x="-34" y="768" type="line"/>
      <point x="57" y="768" type="line"/>
      <point x="71" y="747" type="line"/>
      <point x="10" y="563" type="line"/>
    </contour>
  </outline>
</glyph>
<glyph name="uni030C.cap" format="2">
  <advance width="0"/>
  <outline>
    <contour>
      <point x="-487" y="876" type="line"/>
      <point x="-428" y="938" type="line"/>
      <point x="-330" y="845" type="line"/>
      <point x="-232" y="938" type="line"/>
      <point x="-173" y="876" type="line"/>
      <point x="-330" y="722" type="line"/>
    </contour>
  </outline>
</glyph>
